<svg width="25" height="26" viewBox="0 0 25 26" fill="none" xmlns="http://www.w3.org/2000/svg">
<rect x="1.04167" y="24.4583" width="22.9167" height="22.9167" rx="5.20833" transform="rotate(-90 1.04167 24.4583)" stroke="#A2845E" stroke-width="2.08333"/>
<path d="M19.7917 6.75C19.7917 6.1747 19.3253 5.70833 18.75 5.70833L9.375 5.70833C8.7997 5.70833 8.33333 6.1747 8.33333 6.75C8.33333 7.3253 8.7997 7.79167 9.375 7.79167L17.7083 7.79167L17.7083 16.125C17.7083 16.7003 18.1747 17.1667 18.75 17.1667C19.3253 17.1667 19.7917 16.7003 19.7917 16.125L19.7917 6.75ZM6.98657 19.9866L19.4866 7.48657L18.0134 6.01343L5.51343 18.5134L6.98657 19.9866Z" fill="#A2845E"/>
</svg>
