<svg width="105" height="98" viewBox="0 0 105 98" fill="none" xmlns="http://www.w3.org/2000/svg">
<rect width="105" height="97.63" rx="22" fill="#FFD38B"/>
<path d="M40.5207 25.7417L38.6842 42.4367C38.6897 43.7666 39.089 45.065 39.8318 46.1681C40.5747 47.2712 41.6278 48.1295 42.858 48.6347L41.5848 71.2981C41.5595 72.2854 41.9263 73.2425 42.6048 73.9602C43.2833 74.6778 44.2186 75.0975 45.2058 75.1275C46.193 75.0975 47.128 74.6778 47.8065 73.9602C48.485 73.2425 48.8518 72.2854 48.8265 71.2981L47.9604 48.6347C49.1914 48.1307 50.2453 47.2727 50.9883 46.1693C51.7314 45.066 52.1301 43.7669 52.1342 42.4367L50.6421 25.7417M45.3935 26.3052V43.5427M66.7425 48.3217C66.1405 48.4022 65.591 48.7071 65.2041 49.1752C64.8171 49.6434 64.6213 50.2404 64.6556 50.8468L65.8035 71.3086C65.8288 72.2959 65.462 73.253 64.7835 73.9706C64.1049 74.6882 63.1696 75.1079 62.1825 75.138C61.1953 75.1079 60.2603 74.6882 59.5817 73.9706C58.9032 73.253 58.5364 72.2959 58.5617 71.3086L59.3652 49.8868C59.3806 49.4916 59.3176 49.0972 59.1797 48.7265C59.0418 48.3557 58.8317 48.016 58.5617 47.7269V23.947C58.5617 23.947 70.5093 24.4479 66.7111 48.3217H66.7425Z" stroke="#FFF7EA" stroke-width="1.69934" stroke-linecap="round" stroke-linejoin="round"/>
</svg>
