<svg width="105" height="98" viewBox="0 0 105 98" fill="none" xmlns="http://www.w3.org/2000/svg">
<rect width="105" height="97.6316" rx="25.7895" fill="#FFD38B"/>
<path fill-rule="evenodd" clip-rule="evenodd" d="M36.6274 24.3728L37.6643 21.7903C38.4125 19.927 39.9418 18.75 41.6147 18.75H65.3851C67.058 18.75 68.5873 19.927 69.3355 21.7903L70.3724 24.3728C71.9916 24.8065 73.3127 26.3515 73.7272 28.4161L74.8313 33.9161C75.4229 36.8629 73.9842 39.8491 71.6177 40.5858C71.3739 40.6617 71.1255 40.7115 70.8753 40.7347L66.4568 79.25H40.543L36.1246 40.735C33.8388 40.5256 32.0366 38.1499 32.0366 35.25C32.0366 34.8003 32.0809 34.3523 32.1685 33.9161L33.2727 28.4161C33.6871 26.3515 35.0083 24.8065 36.6274 24.3728ZM40.5878 40.75H66.412L62.6263 73.75H44.3735L40.5878 40.75ZM37.5575 29.75H39.4064L41.6147 24.25H65.3851L67.5934 29.75H69.4424L70.5465 35.25H36.4533L37.5575 29.75Z" fill="#FFF7EA"/>
</svg>
