<svg width="105" height="98" viewBox="0 0 105 98" fill="none" xmlns="http://www.w3.org/2000/svg">
<rect width="105" height="97.6316" rx="25.7895" fill="#FFD38B"/>
<path d="M36.837 43.5318C36.6608 42.5846 36.5064 41.6044 36.3852 40.6021C35.1847 30.8105 37.3215 22.4947 41.1545 22.0211C44.9874 21.5475 49.0847 29.1142 50.2853 38.9059C50.4175 40.0073 50.5166 41.1638 50.5717 42.2101M37.4978 27.385L42.289 29.1913M36.055 33.7512L41.9476 36.3065M41.1325 68.9306H63.5684M52.6092 43.9283C51.823 43.1797 51.197 42.2793 50.7691 41.2815C50.3413 40.2838 50.1204 39.2095 50.12 38.1239C50.12 36.0021 50.9623 33.9671 52.4616 32.4657C53.9609 30.9644 55.9946 30.1194 58.1163 30.1165C60.24 30.1165 62.2767 30.9601 63.7783 32.4618C65.28 33.9635 66.1237 36.0002 66.1237 38.1239C66.1253 39.0198 65.9765 39.9096 65.6832 40.7562M58.1162 32.7709C58.1162 32.7709 57.8739 27.7484 61.6628 25.3253M36.5397 43.9283L38.7425 41.0096C38.9019 40.8017 39.107 40.6333 39.3419 40.5174C39.5768 40.4015 39.8353 40.3412 40.0973 40.3412C40.3592 40.3412 40.6177 40.4015 40.8526 40.5174C41.0875 40.6333 41.2926 40.8017 41.452 41.0096L43.4894 43.675C43.5685 43.7799 43.6709 43.8651 43.7885 43.9237C43.906 43.9823 44.0355 44.0127 44.1668 44.0127C44.2982 44.0127 44.4279 43.9823 44.5454 43.9237C44.663 43.8651 44.7651 43.7799 44.8442 43.675L46.8819 41.0096C47.0413 40.8017 47.2464 40.6333 47.4813 40.5174C47.7162 40.4015 47.9747 40.3412 48.2366 40.3412C48.4986 40.3412 48.7571 40.4015 48.992 40.5174C49.2269 40.6333 49.432 40.8017 49.5914 41.0096C49.5914 41.0096 50.6928 42.4744 51.5299 43.5869C51.6203 43.7056 51.7371 43.8018 51.8708 43.8681C52.0046 43.9343 52.1516 43.9688 52.3008 43.9688C52.45 43.9688 52.5973 43.9343 52.731 43.8681C52.8648 43.8018 52.9816 43.7056 53.072 43.5869L55.0544 41.0316C55.2126 40.8238 55.4167 40.6555 55.6508 40.5395C55.8848 40.4236 56.1425 40.3633 56.4037 40.3633C56.6649 40.3633 56.9226 40.4236 57.1566 40.5395C57.3907 40.6555 57.5948 40.8238 57.7531 41.0316L59.7905 43.6971C59.8707 43.8021 59.9741 43.8872 60.0925 43.9458C60.2109 44.0044 60.3414 44.0349 60.4735 44.0349C60.6057 44.0349 60.7359 44.0044 60.8543 43.9458C60.9727 43.8872 61.0761 43.8021 61.1563 43.6971L63.194 41.0316C63.3523 40.8238 63.5564 40.6555 63.7904 40.5395C64.0245 40.4236 64.2819 40.3633 64.5431 40.3633C64.8042 40.3633 65.062 40.4236 65.296 40.5395C65.53 40.6555 65.7342 40.8238 65.8924 41.0316L68.0953 43.9504C68.4062 44.3675 68.5759 44.873 68.5798 45.3932V72.5652C68.5798 72.9312 68.5077 73.2936 68.3677 73.6316C68.2276 73.9697 68.0225 74.2769 67.7637 74.5357C67.505 74.7944 67.1978 74.9997 66.8597 75.1397C66.5216 75.2797 66.1591 75.3519 65.7932 75.3519H38.7756C38.0385 75.349 37.3323 75.0541 36.8121 74.5318C36.2919 74.0095 36 73.3024 36 72.5652V45.3712C36.0141 44.8435 36.204 44.3357 36.5397 43.9283Z" stroke="#FFF7EA" stroke-width="3.30426" stroke-linecap="round" stroke-linejoin="round"/>
</svg>
