<svg width="105" height="98" viewBox="0 0 105 98" fill="none" xmlns="http://www.w3.org/2000/svg">
<rect width="105" height="97.6316" rx="25.7895" fill="#FFD38B"/>
<path fill-rule="evenodd" clip-rule="evenodd" d="M40.1667 52.6667C38.1416 52.6667 36.5 51.0251 36.5 49C36.5 46.975 38.1416 45.3334 40.1667 45.3334C42.1917 45.3334 43.8333 46.975 43.8333 49C43.8333 51.0251 42.1917 52.6667 40.1667 52.6667ZM53 52.6667C50.975 52.6667 49.3333 51.0251 49.3333 49C49.3333 46.975 50.975 45.3334 53 45.3334C55.025 45.3334 56.6667 46.975 56.6667 49C56.6667 51.0251 55.025 52.6667 53 52.6667ZM62.1667 49C62.1667 51.0251 63.8083 52.6667 65.8333 52.6667C67.8584 52.6667 69.5 51.0251 69.5 49C69.5 46.975 67.8584 45.3334 65.8333 45.3334C63.8083 45.3334 62.1667 46.975 62.1667 49Z" fill="#FFF7EA"/>
</svg>
