<svg width="105" height="98" viewBox="0 0 105 98" fill="none" xmlns="http://www.w3.org/2000/svg">
<rect width="105" height="97.6316" rx="25.7895" fill="#FFD38B"/>
<g clip-path="url(#clip0_2225_2245)">
<path d="M49.9 58.59H59.9C60.8195 58.5874 61.7005 58.221 62.3507 57.5708C63.0009 56.9206 63.3674 56.0396 63.37 55.1201C63.3647 54.2023 62.9972 53.3238 62.3473 52.6758C61.6974 52.0278 60.8178 51.6627 59.9 51.66H53.5599C52.1372 51.6432 50.725 51.4141 49.37 50.9801C46.86 50.4401 42.8001 50.4101 40.9401 55.1201H36.9401M63.3199 55.12L72.3199 49.82C73.1054 49.3442 74.0476 49.1991 74.9398 49.4165C75.832 49.6339 76.6015 50.1962 77.08 50.98C77.5541 51.7649 77.6993 52.7052 77.484 53.5965C77.2687 54.4879 76.7102 55.2582 75.9301 55.74L64.16 64.6C62.0617 66.1792 59.5062 67.0322 56.88 67.03H36.88M59.9801 39.4301L57.5299 41.8901C57.515 41.9055 57.4972 41.9178 57.4774 41.9262C57.4577 41.9345 57.4364 41.9388 57.4149 41.9388C57.3935 41.9388 57.3724 41.9345 57.3527 41.9262C57.3329 41.9178 57.3148 41.9055 57.2999 41.8901L55.7899 39.42H49.1901C48.6097 40.9302 47.585 42.2289 46.2513 43.1447C44.9177 44.0606 43.3379 44.5506 41.7201 44.5501C39.5984 44.5501 37.5634 43.7072 36.0631 42.2069C34.5628 40.7066 33.7201 38.6718 33.7201 36.5501C33.7201 34.4283 34.5628 32.3935 36.0631 30.8932C37.5634 29.3929 39.5984 28.5501 41.7201 28.5501C43.3367 28.5488 44.9157 29.0373 46.2491 29.9513C47.5826 30.8653 48.6081 32.1618 49.1901 33.67H63.9L67.66 36.86L62.66 42.03L59.9801 39.48M36.9 53.35C36.9 53.2068 36.8431 53.0695 36.7418 52.9682C36.6406 52.8669 36.5032 52.8101 36.36 52.8101H31.09C30.9467 52.8101 30.8094 52.8669 30.7081 52.9682C30.6069 53.0695 30.5499 53.2068 30.5499 53.35V68.78C30.5499 68.9232 30.6069 69.0606 30.7081 69.1619C30.8094 69.2631 30.9467 69.3201 31.09 69.3201H36.36C36.5032 69.3201 36.6406 69.2631 36.7418 69.1619C36.8431 69.0606 36.9 68.9232 36.9 68.78V53.35Z" stroke="#FFF7EA" stroke-width="3" stroke-linecap="round" stroke-linejoin="round"/>
<path d="M39.5699 38.2C40.7628 38.2 41.7299 37.2329 41.7299 36.04C41.7299 34.8471 40.7628 33.88 39.5699 33.88C38.377 33.88 37.4099 34.8471 37.4099 36.04C37.4099 37.2329 38.377 38.2 39.5699 38.2Z" fill="#FFF7EA"/>
</g>
<defs>
<clipPath id="clip0_2225_2245">
<rect width="50.09" height="43.82" fill="white" transform="translate(29 27)"/>
</clipPath>
</defs>
</svg>
