<svg width="105" height="98" viewBox="0 0 105 98" fill="none" xmlns="http://www.w3.org/2000/svg">
<rect width="105" height="97.6316" rx="25.7895" fill="#FFD38B"/>
<path fill-rule="evenodd" clip-rule="evenodd" d="M39.0493 37.25C39.8455 31.697 45.7588 27.0834 52.4999 27.0834C59.2411 27.0834 65.1544 31.697 65.9506 37.25H73.7522C76.7438 37.25 79.1689 39.5259 79.1689 42.3334C79.1689 42.5739 79.1507 42.8141 79.1144 43.0523L74.4716 73.5523C74.0904 76.0566 71.805 77.9167 69.1094 77.9167H35.8905C33.1949 77.9167 30.9095 76.0566 30.5283 73.5523L25.8855 43.0523C25.4624 40.273 27.5202 37.6982 30.4816 37.3011C30.7354 37.2671 30.9914 37.25 31.2477 37.25H39.0493ZM60.4296 37.25C59.6063 34.551 56.2863 32.1667 52.4999 32.1667C48.7136 32.1667 45.3936 34.551 44.5703 37.25H60.4296ZM31.2477 42.3334H38.9583V47.4167H44.3749V42.3334H60.6249V47.4167H66.0416V42.3334H73.7522L69.1094 72.8334H35.8905L31.2477 42.3334Z" fill="#FFF7EA"/>
</svg>
